<svg class="diagram-root" style="background: #f5f6f6" xmlns="http://www.w3.org/2000/svg" xmlns:xlink="http://www.w3.org/1999/xlink"><style>.diagram-root { font-family: "Helvetica Neue", sans-serif; font-size: 12px; } .t { overflow: visible; } .t-bg { y: 40; fill: #fff;   } .th { fill: #005aa0;   } .tht { fill: #fff; font-size: 14px;  } .tf { fill: #323c46; overflow: visible; } .tf.pk { fill: #005aa0; font-weight: bold; } .tf.fk { font-weight: bold; } .ty { fill: #adb1b5; font-weight: normal; text-anchor: end; } .r { fill: transparent; stroke: #c3c3c3; stroke-width: 1; } .l { stroke: 1; } .i { fill: #c2c7ce; stroke: #c2c7ce; } .i.ix { fill: #afb3b6; stroke: #000; } .fa { fill: transparent; overflow: visible; } .fa .bg.hover { fill: #f7f7f7; } .c { cy: 12; r: 4; stroke: #d2d2dc; fill: #d2d2dc; } .hr { fill: transparent; stroke: #323c46; stroke-opacity: 0.035; stroke-width: 13; } .dc { stroke: #fa5a3c; fill: #fa5a3c; } .x { stroke: white; stroke-width: 1; } .hl .th { fill: #1b9bff; } .hl .tht {  } .fhl .bg { fill: #e7f4ff; } .fhls .bg {  } .r.hl { stroke: #1b9bff; } .dim { opacity: 0.25; }</style><g class="drawing-wrapper" transform="translate(2, 18) scale(1,1)"><g class="rs"><path d="M 394 312 m -1, 0 a 1,1 0 1,0 2,0 a 1,1 0 1,0 -2,0 M 394 312 m -0.5, 0 a 0.5,0.5 0 1,0 1,0 a 0.5,0.5 0 1,0 -1,0  M394 312 L394 312 382 312 M388 318 L388 318 388 306 M382 312 Q 338.51 312, 295.02 319.5 T 208.04 327 M 196.04 327 m -1, 0 a 1,1 0 1,0 2,0 a 1,1 0 1,0 -2,0 M 196.04 327 m -0.5, 0 a 0.5,0.5 0 1,0 1,0 a 0.5,0.5 0 1,0 -1,0  M196.04 327 L196.04 327 208.04 327 M 196.04 333 m -1, 0 a 1,1 0 1,0 2,0 a 1,1 0 1,0 -2,0 M 196.04 333 m -0.5, 0 a 0.5,0.5 0 1,0 1,0 a 0.5,0.5 0 1,0 -1,0  M196.04 333 L196.04 333 203.04 327 196.04 321 M 196.04 321 m -1, 0 a 1,1 0 1,0 2,0 a 1,1 0 1,0 -2,0 M 196.04 321 m -0.5, 0 a 0.5,0.5 0 1,0 1,0 a 0.5,0.5 0 1,0 -1,0 " id="h588188331" class="r"></path><path d="M 394 337 m -1, 0 a 1,1 0 1,0 2,0 a 1,1 0 1,0 -2,0 M 394 337 m -0.5, 0 a 0.5,0.5 0 1,0 1,0 a 0.5,0.5 0 1,0 -1,0  M394 337 L394 337 382 337 M388 343 L388 343 388 331 M382 337 Q 334.85 337, 287.69 212 T 193.38 87 M 181.38 87 m -1, 0 a 1,1 0 1,0 2,0 a 1,1 0 1,0 -2,0 M 181.38 87 m -0.5, 0 a 0.5,0.5 0 1,0 1,0 a 0.5,0.5 0 1,0 -1,0  M181.38 87 L181.38 87 193.38 87 M 181.38 93 m -1, 0 a 1,1 0 1,0 2,0 a 1,1 0 1,0 -2,0 M 181.38 93 m -0.5, 0 a 0.5,0.5 0 1,0 1,0 a 0.5,0.5 0 1,0 -1,0  M181.38 93 L181.38 93 188.38 87 181.38 81 M 181.38 81 m -1, 0 a 1,1 0 1,0 2,0 a 1,1 0 1,0 -2,0 M 181.38 81 m -0.5, 0 a 0.5,0.5 0 1,0 1,0 a 0.5,0.5 0 1,0 -1,0 " id="h2245754833" class="r"></path><path d="M 388 84 m -1, 0 a 1,1 0 1,0 2,0 a 1,1 0 1,0 -2,0 M 388 84 m -0.5, 0 a 0.5,0.5 0 1,0 1,0 a 0.5,0.5 0 1,0 -1,0  M388 84 L388 84 376 84 M382 90 L382 90 382 78 M376 84 Q 330.35 84, 284.69 85.5 T 193.38 87 M 181.38 87 m -1, 0 a 1,1 0 1,0 2,0 a 1,1 0 1,0 -2,0 M 181.38 87 m -0.5, 0 a 0.5,0.5 0 1,0 1,0 a 0.5,0.5 0 1,0 -1,0  M181.38 87 L181.38 87 193.38 87 M187.38 93 L187.38 93 187.38 81" id="h4131148852" class="r"></path><path d="M 388 109 m -1, 0 a 1,1 0 1,0 2,0 a 1,1 0 1,0 -2,0 M 388 109 m -0.5, 0 a 0.5,0.5 0 1,0 1,0 a 0.5,0.5 0 1,0 -1,0  M388 109 L388 109 376 109 M382 115 L382 115 382 103 M376 109 Q 334.01 109, 292.02 218 T 208.04 327 M 196.04 327 m -1, 0 a 1,1 0 1,0 2,0 a 1,1 0 1,0 -2,0 M 196.04 327 m -0.5, 0 a 0.5,0.5 0 1,0 1,0 a 0.5,0.5 0 1,0 -1,0  M196.04 327 L196.04 327 208.04 327 M202.04 333 L202.04 333 202.04 321" id="h1135834714" class="r"></path><path d="M 187.38 599 m -1, 0 a 1,1 0 1,0 2,0 a 1,1 0 1,0 -2,0 M 187.38 599 m -0.5, 0 a 0.5,0.5 0 1,0 1,0 a 0.5,0.5 0 1,0 -1,0  M187.38 599 L187.38 599 199.38 599 M193.38 605 L193.38 605 193.38 593 M199.38 599 C 263.236 599, 258.03999999999996 327, 208.04 327 M 196.04 327 m -1, 0 a 1,1 0 1,0 2,0 a 1,1 0 1,0 -2,0 M 196.04 327 m -0.5, 0 a 0.5,0.5 0 1,0 1,0 a 0.5,0.5 0 1,0 -1,0  M196.04 327 L196.04 327 208.04 327 M202.04 333 L202.04 333 202.04 321" id="h2607443090" class="r"></path><path d="M 480 549 m -1, 0 a 1,1 0 1,0 2,0 a 1,1 0 1,0 -2,0 M 480 549 m -0.5, 0 a 0.5,0.5 0 1,0 1,0 a 0.5,0.5 0 1,0 -1,0  M480 549 L480 549 468 549 M474 555 L474 555 474 543 M468 549 Q 403.01 549, 338.02 438 T 208.04 327 M 196.04 327 m -1, 0 a 1,1 0 1,0 2,0 a 1,1 0 1,0 -2,0 M 196.04 327 m -0.5, 0 a 0.5,0.5 0 1,0 1,0 a 0.5,0.5 0 1,0 -1,0  M196.04 327 L196.04 327 208.04 327 M 196.04 333 m -1, 0 a 1,1 0 1,0 2,0 a 1,1 0 1,0 -2,0 M 196.04 333 m -0.5, 0 a 0.5,0.5 0 1,0 1,0 a 0.5,0.5 0 1,0 -1,0  M196.04 333 L196.04 333 203.04 327 196.04 321 M 196.04 321 m -1, 0 a 1,1 0 1,0 2,0 a 1,1 0 1,0 -2,0 M 196.04 321 m -0.5, 0 a 0.5,0.5 0 1,0 1,0 a 0.5,0.5 0 1,0 -1,0 " id="h767251706" class="r"></path></g><g class="hrs"></g><g class="ts"><svg width="151.38" height="100" x="30" y="30" id="h2876837712" class="t"><rect height="40" width="151.38" class="th"></rect><text x="13" y="25" class="tht">Department</text><rect height="60" width="151.38" class="t-bg"></rect><text x="13" y="61" class="tf pk">Dept_no<tspan x="138.38" class="ty">varchar</tspan></text><path d="M7,14A2,2 0 0,1 5,12A2,2 0 0,1 7,10A2,2 0 0,1 9,12A2,2 0 0,1 7,14M12.65,10C11.83,7.67 9.61,6 7, 6A6, 6 0 0, 0 1, 12A6, 6 0 0, 0 7, 18C9.61, 18 11.83, 16.33 12.65, 14H17V18H21V14H23V10H12.65Z" class="i pk" transform="translate(78.366328125, 48) scale(0.65)"></path><text x="13" y="86" class="tf">Dept_name<tspan x="138.38" class="ty">varchar</tspan></text></svg><svg width="142.04" height="200" x="54" y="270" id="h3299212598" class="t"><rect height="40" width="142.04" class="th"></rect><text x="13" y="25" class="tht">Employees</text><rect height="160" width="142.04" class="t-bg"></rect><text x="13" y="61" class="tf pk">Emp_no<tspan x="129.04" class="ty">int</tspan></text><path d="M7,14A2,2 0 0,1 5,12A2,2 0 0,1 7,10A2,2 0 0,1 9,12A2,2 0 0,1 7,14M12.65,10C11.83,7.67 9.61,6 7, 6A6, 6 0 0, 0 1, 12A6, 6 0 0, 0 7, 18C9.61, 18 11.83, 16.33 12.65, 14H17V18H21V14H23V10H12.65Z" class="i pk" transform="translate(96.36617187499999, 48) scale(0.65)"></path><text x="13" y="86" class="tf">birth_date<tspan x="129.04" class="ty">date</tspan></text><text x="13" y="111" class="tf">first_name<tspan x="129.04" class="ty">varchar</tspan></text><text x="13" y="136" class="tf">last_name<tspan x="129.04" class="ty">varchar</tspan></text><text x="13" y="161" class="tf">gender<tspan x="129.04" class="ty">varchar</tspan></text><text x="13" y="186" class="tf">hire_date<tspan x="129.04" class="ty">date</tspan></text></svg><svg width="149.39" height="150" x="394" y="255" id="h3353995054" class="t"><rect height="40" width="149.39" class="th"></rect><text x="13" y="25" class="tht">Dept_Emp</text><rect height="110" width="149.39" class="t-bg"></rect><text x="13" y="61" class="tf pk">emp_no<tspan x="136.39" class="ty">int</tspan></text><path d="M7,14A2,2 0 0,1 5,12A2,2 0 0,1 7,10A2,2 0 0,1 9,12A2,2 0 0,1 7,14M12.65,10C11.83,7.67 9.61,6 7, 6A6, 6 0 0, 0 1, 12A6, 6 0 0, 0 7, 18C9.61, 18 11.83, 16.33 12.65, 14H17V18H21V14H23V10H12.65Z" class="i pk" transform="translate(103.71617187499999, 48) scale(0.65)"></path><text x="13" y="86" class="tf pk">dept_no<tspan x="136.39" class="ty">varchar</tspan></text><path d="M7,14A2,2 0 0,1 5,12A2,2 0 0,1 7,10A2,2 0 0,1 9,12A2,2 0 0,1 7,14M12.65,10C11.83,7.67 9.61,6 7, 6A6, 6 0 0, 0 1, 12A6, 6 0 0, 0 7, 18C9.61, 18 11.83, 16.33 12.65, 14H17V18H21V14H23V10H12.65Z" class="i pk" transform="translate(76.37632812499999, 73) scale(0.65)"></path><text x="13" y="111" class="tf">from_date<tspan x="136.39" class="ty">date</tspan></text><text x="13" y="136" class="tf">to_date<tspan x="136.39" class="ty">date</tspan></text></svg><svg width="149.39" height="150" x="388" y="27" id="h754932316" class="t"><rect height="40" width="149.39" class="th"></rect><text x="13" y="25" class="tht">Dept_Manager</text><rect height="110" width="149.39" class="t-bg"></rect><text x="13" y="61" class="tf pk">dept_no<tspan x="136.39" class="ty">varchar</tspan></text><path d="M7,14A2,2 0 0,1 5,12A2,2 0 0,1 7,10A2,2 0 0,1 9,12A2,2 0 0,1 7,14M12.65,10C11.83,7.67 9.61,6 7, 6A6, 6 0 0, 0 1, 12A6, 6 0 0, 0 7, 18C9.61, 18 11.83, 16.33 12.65, 14H17V18H21V14H23V10H12.65Z" class="i pk" transform="translate(76.37632812499999, 48) scale(0.65)"></path><text x="13" y="86" class="tf pk">emp_no<tspan x="136.39" class="ty">int</tspan></text><path d="M7,14A2,2 0 0,1 5,12A2,2 0 0,1 7,10A2,2 0 0,1 9,12A2,2 0 0,1 7,14M12.65,10C11.83,7.67 9.61,6 7, 6A6, 6 0 0, 0 1, 12A6, 6 0 0, 0 7, 18C9.61, 18 11.83, 16.33 12.65, 14H17V18H21V14H23V10H12.65Z" class="i pk" transform="translate(103.71617187499999, 73) scale(0.65)"></path><text x="13" y="111" class="tf">from_date<tspan x="136.39" class="ty">date</tspan></text><text x="13" y="136" class="tf">to_date<tspan x="136.39" class="ty">date</tspan></text></svg><svg width="123.38" height="150" x="64" y="542" id="h3858243705" class="t"><rect height="40" width="123.38" class="th"></rect><text x="13" y="25" class="tht">Salaries</text><rect height="110" width="123.38" class="t-bg"></rect><text x="13" y="61" class="tf pk">emp_no<tspan x="110.38" class="ty">int</tspan></text><path d="M7,14A2,2 0 0,1 5,12A2,2 0 0,1 7,10A2,2 0 0,1 9,12A2,2 0 0,1 7,14M12.65,10C11.83,7.67 9.61,6 7, 6A6, 6 0 0, 0 1, 12A6, 6 0 0, 0 7, 18C9.61, 18 11.83, 16.33 12.65, 14H17V18H21V14H23V10H12.65Z" class="i pk" transform="translate(77.706171875, 48) scale(0.65)"></path><text x="13" y="86" class="tf">salary<tspan x="110.38" class="ty">int</tspan></text><text x="13" y="111" class="tf">from_date<tspan x="110.38" class="ty">date</tspan></text><text x="13" y="136" class="tf">to_date<tspan x="110.38" class="ty">date</tspan></text></svg><svg width="123.38" height="150" x="480" y="492" id="h3517680912" class="t"><rect height="40" width="123.38" class="th"></rect><text x="13" y="25" class="tht">Titles</text><rect height="110" width="123.38" class="t-bg"></rect><text x="13" y="61" class="tf pk">emp_no<tspan x="110.38" class="ty">int</tspan></text><path d="M7,14A2,2 0 0,1 5,12A2,2 0 0,1 7,10A2,2 0 0,1 9,12A2,2 0 0,1 7,14M12.65,10C11.83,7.67 9.61,6 7, 6A6, 6 0 0, 0 1, 12A6, 6 0 0, 0 7, 18C9.61, 18 11.83, 16.33 12.65, 14H17V18H21V14H23V10H12.65Z" class="i pk" transform="translate(77.706171875, 48) scale(0.65)"></path><text x="13" y="86" class="tf">title<tspan x="110.38" class="ty">varchar</tspan></text><text x="13" y="111" class="tf">from_date<tspan x="110.38" class="ty">date</tspan></text><text x="13" y="136" class="tf">to_date<tspan x="110.38" class="ty">date</tspan></text></svg></g></g><text class="qdbd-link" x="10" y="20">www.quickdatabasediagrams.com</text></svg>